<svg width="130" height="32" viewBox="0 0 130 32" fill="none" xmlns="http://www.w3.org/2000/svg">
<path d="M34.1255 11.3046H47.2808V13.7633H42.1091V27.5686H39.283V13.7633H34.1113V11.3046H34.1255ZM46.7156 15.7839H49.146V18.0589C49.238 17.7228 49.3913 17.4066 49.5982 17.1263C49.8249 16.8196 50.091 16.5441 50.3895 16.3067C50.7029 16.0564 51.0502 15.8519 51.421 15.6991C51.7873 15.5425 52.1813 15.4608 52.5797 15.4589H53.5688V17.96H52.4525C52.0242 17.9648 51.6012 18.0561 51.2091 18.2285C50.8195 18.4075 50.4726 18.6676 50.1917 18.9915C49.8738 19.353 49.6247 19.7696 49.4569 20.2209C49.2739 20.7766 49.1878 21.3598 49.2026 21.9448V27.5969H46.7015V15.7981L46.7156 15.7839ZM65.5373 27.5545H62.9938V25.873C62.6667 26.4688 62.1765 26.9589 61.5808 27.286C60.9905 27.624 60.3249 27.8086 59.6449 27.823C59.0353 27.8803 58.4205 27.808 57.8409 27.6107C57.2612 27.4135 56.7299 27.0957 56.2819 26.6784C55.531 25.6816 55.1647 24.4474 55.2504 23.2024V15.7981H57.7938V23.0469C57.71 23.8256 57.9218 24.6073 58.3873 25.2371C58.604 25.4557 58.8648 25.6255 59.1523 25.7351C59.4399 25.8448 59.7475 25.8918 60.0547 25.873C60.5377 25.8991 61.0204 25.817 61.4677 25.6328C61.8097 25.4732 62.1133 25.2419 62.3579 24.9545C62.5865 24.6502 62.7544 24.3048 62.8525 23.9371C62.9491 23.5202 62.9965 23.0934 62.9938 22.6654V15.8122H65.5938L65.5373 27.5545ZM69.9459 23.7817C69.9463 24.1062 70.0248 24.4259 70.1748 24.7137C70.3249 25.0015 70.542 25.2489 70.8079 25.435C71.3592 25.7456 71.984 25.9018 72.6166 25.8871H73.4785C73.7791 25.8584 74.0741 25.7871 74.3546 25.6752C74.615 25.5768 74.8477 25.4168 75.0329 25.2089C75.2148 24.9819 75.301 24.693 75.2731 24.4034C75.2711 24.249 75.2375 24.0966 75.1743 23.9556C75.1111 23.8146 75.0197 23.6881 74.9057 23.5839C74.6501 23.3582 74.3523 23.1853 74.0296 23.0752C73.6353 22.8929 73.2294 22.7372 72.8144 22.6089L71.4014 22.3121C70.9229 22.2084 70.4511 22.0763 69.9883 21.9165C69.559 21.7773 69.1538 21.5723 68.7872 21.3089C68.4263 21.0514 68.131 20.7125 67.9253 20.3198C67.6855 19.8523 67.5642 19.3331 67.572 18.8078C67.5534 18.2351 67.7167 17.6712 68.0383 17.197C68.3539 16.7706 68.759 16.4185 69.2253 16.1654C69.7234 15.8917 70.2626 15.7008 70.822 15.6002C71.3905 15.5438 71.9633 15.5438 72.5318 15.6002C73.1213 15.6024 73.7088 15.6687 74.284 15.7981C74.8164 15.9214 75.3232 16.1366 75.7818 16.4339C76.2339 16.7163 76.6157 17.0981 76.8981 17.5502C77.2068 18.0617 77.3952 18.6367 77.4492 19.2317H74.7503C74.7207 18.9693 74.6282 18.7179 74.4806 18.499C74.3329 18.28 74.1346 18.0999 73.9024 17.9741C73.4184 17.7576 72.8923 17.6514 72.3622 17.6633H71.7122C71.4662 17.6913 71.2243 17.7482 70.9916 17.8328C70.7848 17.9165 70.5973 18.0415 70.4405 18.2002C70.3601 18.2849 70.2975 18.3847 70.2562 18.4939C70.215 18.6031 70.1959 18.7194 70.2003 18.8361C70.1925 18.981 70.2192 19.1257 70.2781 19.2584C70.3371 19.391 70.4266 19.5078 70.5394 19.5991C70.7962 19.8122 71.0878 19.9795 71.4014 20.0937C71.7981 20.2346 72.2042 20.3479 72.6166 20.4328L74.0296 20.7295C74.4959 20.8285 74.9481 20.9698 75.4426 21.1111C75.8786 21.2513 76.289 21.4613 76.6579 21.7328C77.0062 21.9983 77.299 22.3296 77.5198 22.7078C77.7524 23.2085 77.8598 23.7582 77.8327 24.3096C77.8056 24.861 77.6449 25.3975 77.3644 25.873C77.05 26.3568 76.6296 26.7627 76.135 27.0599C75.6033 27.3692 75.0264 27.5933 74.4253 27.7241C73.8231 27.865 73.2067 27.9361 72.5883 27.936C71.8928 27.9362 71.1999 27.8508 70.5253 27.6817C69.9192 27.521 69.3488 27.2477 68.8438 26.8762C68.3939 26.5354 68.0228 26.1017 67.7557 25.6045C67.4892 25.038 67.3448 24.4218 67.3318 23.7958H69.9459V23.7817ZM78.5089 15.7839H80.5437V12.2655H83.1437V15.7981H85.4752V17.7339H83.073V24.0219C83.0589 24.2619 83.0589 24.5026 83.073 24.7426C83.0968 24.915 83.1493 25.0821 83.2285 25.2371C83.317 25.3808 83.4514 25.4903 83.61 25.548C83.8302 25.6344 84.0662 25.6729 84.3024 25.661H84.8535C85.039 25.6466 85.2232 25.6183 85.4045 25.5763V27.5828L84.5709 27.6817H83.723C83.1654 27.6936 82.6089 27.627 82.0698 27.4839C81.7035 27.378 81.3687 27.1839 81.0948 26.9186C80.8531 26.6515 80.6872 26.3247 80.6144 25.9719C80.5247 25.5443 80.4774 25.1088 80.4731 24.6719V17.7622H78.5372V15.7981L78.5089 15.7839ZM87.2415 15.7839H89.7002V17.3948C90.0387 16.768 90.5753 16.2711 91.2263 15.9817C91.893 15.6834 92.6153 15.5293 93.3458 15.5296C94.1822 15.5161 95.0116 15.6849 95.7762 16.0241C96.4466 16.3456 97.0358 16.8141 97.5001 17.3948C97.97 17.9909 98.3203 18.6723 98.5317 19.4013C98.7665 20.1618 98.8949 20.9512 98.9132 21.7469C98.9113 22.5167 98.8019 23.2824 98.5882 24.0219C98.406 24.7347 98.0895 25.4061 97.6556 26.0002C97.229 26.6196 96.6533 27.1216 95.9815 27.4599C95.3098 27.7982 94.5638 27.962 93.8121 27.936C93.433 27.9388 93.0545 27.9057 92.6817 27.8371C92.307 27.7671 91.9418 27.6533 91.5936 27.498C90.8959 27.2074 90.3006 26.7155 89.8839 26.085V31.9632H87.2415V15.7839ZM96.3132 21.6339C96.2992 21.1551 96.2232 20.6801 96.0871 20.2209C95.9617 19.7442 95.7511 19.2942 95.4654 18.8926C95.2015 18.5085 94.8536 18.1895 94.448 17.96C93.8079 17.6305 93.0751 17.5279 92.3692 17.6691C91.6633 17.8103 91.0262 18.1868 90.5621 18.7372C89.9963 19.5949 89.71 20.6068 89.7426 21.6339C89.7417 22.1918 89.8129 22.7475 89.9545 23.2871C90.0891 23.7639 90.3147 24.2101 90.6186 24.6013C90.8905 24.9651 91.2438 25.2603 91.6502 25.4632C92.09 25.679 92.5733 25.7912 93.0632 25.7912C93.5531 25.7912 94.0365 25.679 94.4762 25.4632C94.8794 25.2243 95.2264 24.9014 95.4936 24.5165C95.7589 24.1157 95.9504 23.6706 96.0588 23.2024C96.2007 22.6904 96.286 22.1644 96.3132 21.6339ZM100.891 11.2622H103.477V13.7209H100.891V11.2622ZM100.891 15.7415H103.477V27.5121H100.891V15.7415ZM105.795 11.2622H108.395V27.5121H105.795V11.2622ZM116.336 27.8371C115.479 27.8537 114.628 27.695 113.835 27.3708C113.121 27.085 112.479 26.6457 111.954 26.0841C111.429 25.5224 111.034 24.8522 110.797 24.1208C110.274 22.4993 110.274 20.7544 110.797 19.1328C111.051 18.413 111.445 17.7503 111.956 17.1828C112.491 16.6553 113.131 16.2462 113.835 15.9817C115.466 15.4254 117.24 15.4554 118.851 16.0665C119.559 16.3611 120.199 16.7989 120.73 17.3524C121.241 17.9199 121.635 18.5825 121.889 19.3024C122.412 20.9239 122.412 22.6688 121.889 24.2904C121.632 25.0129 121.238 25.6796 120.73 26.2545C120.203 26.8126 119.562 27.251 118.851 27.5404C118.048 27.8409 117.192 27.9755 116.336 27.936V27.8371ZM116.336 25.7882C116.866 25.7911 117.387 25.6547 117.848 25.3926C118.263 25.1537 118.62 24.8255 118.894 24.4317C119.166 24.0247 119.372 23.5761 119.501 23.1034C119.622 22.6229 119.684 22.1294 119.685 21.6339C119.687 21.1289 119.626 20.6256 119.501 20.1361C119.386 19.6319 119.181 19.1531 118.894 18.723C118.616 18.3407 118.259 18.0227 117.848 17.7904C117.384 17.5466 116.867 17.4192 116.343 17.4192C115.819 17.4192 115.302 17.5466 114.838 17.7904C114.43 18.0271 114.074 18.3444 113.792 18.723C113.512 19.1568 113.307 19.6344 113.185 20.1361C113.078 20.6278 113.03 21.1308 113.044 21.6339C113.046 22.1442 113.112 22.6522 113.241 23.1458C113.362 23.6217 113.568 24.0718 113.849 24.4741C114.122 24.8679 114.479 25.196 114.895 25.435C115.323 25.6842 115.812 25.8113 116.308 25.8023L116.336 25.7882ZM123.048 15.7415H124.998V12.2655H127.598V15.7981H130V17.7339H127.598V24.7991C127.627 24.9722 127.684 25.1393 127.767 25.2937C127.852 25.4405 127.988 25.5511 128.149 25.6045C128.364 25.691 128.596 25.7296 128.827 25.7176H129.378L129.929 25.6328V27.6393L129.096 27.7382H128.262C127.704 27.7501 127.148 27.6835 126.609 27.5404C126.24 27.4402 125.904 27.2454 125.634 26.9752C125.392 26.708 125.226 26.3812 125.153 26.0284C125.059 25.6012 125.007 25.1658 124.998 24.7284V17.7622H123.062V15.7981L123.048 15.7415Z" fill="#111111"/>
<path d="M15.5434 22.6086L22.326 20.8564L25.152 29.6031L15.5434 22.6086ZM31.0868 11.3043H19.2032L15.5434 0L11.8554 11.3043H0L9.62277 18.2847L5.92062 29.6738L15.5434 22.6086L21.4781 18.3695L31.0868 11.3043Z" fill="#111111"/>
</svg>
